<svg xmlns:xlink="http://www.w3.org/1999/xlink" xmlns="http://www.w3.org/2000/svg" viewBox="0 0 320 360" height="360" width="320"><g><svg></svg></g><g><svg viewBox="0 0 320 360" height="360" width="320"><g><path xmlns="http://www.w3.org/2000/svg" d="M20.961 227.22l3.726 4.658-1.863-6.056c-0.466-2.795-3.726 0.466-1.863 1.398M25.153 224.425c1.397 2.329 2.795 4.658 2.795 6.987 0 3.261 2.795 4.658 5.123 5.589-3.261-3.726-5.124-13.974-7.918-12.576M204.017 26.929c7.918 0 15.371-0.932 23.756 0.931 20.495 5.124 37.729 15.371 49.374 29.811l32.606 52.169c1.397 13.042 4.192 27.482 3.726 43.319 3.261 0 2.795-4.658 6.521-5.59-3.726 9.316-5.59 20.961-6.521 34.469-2.329-7.453 0-18.632 0.466-24.687-3.261 5.124-5.124 1.397-5.124-0.932 0.466-3.726-1.397-3.261-2.795-4.658-5.124-4.658-8.384-9.782-12.11-17.7 2.329-6.055 2.795-14.905-4.658-19.563-2.329-1.397-5.124-3.726-6.521-7.453-1.863-5.124-5.124-11.179-4.193-19.097 0.466-2.329-6.987 5.124-11.179 1.863-18.166-12.576-36.332-27.016-58.224-39.127-11.645 0-20.029-4.192-24.221-9.316-3.726-4.658-0.932-10.713 4.658-11.179 3.261 0 6.987-0.932 9.782 0.932 0.466-1.863 2.329-4.192 4.657-4.192M157.904 16.215l0.932 0.466c4.658 0.932 6.987 7.453 12.11 5.124 0 3.261 0.466 6.521-0.466 8.85-1.397 3.726-5.59 3.726-8.85 3.726-31.208-1.863-49.374 11.179-68.471 22.358-5.124 3.261-10.713 5.59-14.906 9.782-20.029 18.632-41.921 35.866-47.045 70.335l-4.192 38.195c-0.466 4.192-5.124 8.384-4.192 13.508l3.26 22.824c-3.261-3.261-5.124 0.932-4.192 2.795 0.466 1.397 2.329 6.055 5.124 1.863 3.726 6.987 7.453 20.495 12.576 26.55 15.837 18.632 36.332 35.4 53.101 52.169 4.192-0.932 7.453-0.932 8.384-3.727 1.397 2.795-1.397 5.59-3.726 6.056 7.453 4.658 15.837 8.85 27.016 9.781 14.44 0.932 27.948 3.261 40.524 6.522 6.521-1.863 13.042-2.795 20.029-3.261 2.329 0 3.726-3.726 6.521-4.658l0.466-4.658c2.795 4.192 2.329-1.397 0.466-4.192 3.261 2.795 4.192 5.124 5.589 6.987 0-1.397 3.726-6.521 3.727-0.466l0.931-6.055c1.397-0.932 1.863 5.124 3.261 0.931 1.397-4.192 4.192-0.932 6.987-2.329-0.932 1.863-0.466 5.59 2.794 3.261l3.727-3.261c2.329 5.59 6.055 3.261 7.918 2.329 20.495-13.042 40.99-28.413 60.553-43.784l-0.466 6.055 2.329-7.453c2.329 2.329 4.192 0.466 5.124-0.931 2.795-4.658 6.521-9.316 12.577-13.508-7.453 20.029-16.303 35.866-27.482 48.908l-4.658 5.59c0 3.261-0.932 7.453-4.658 7.918-1.863 0.466-5.59-0.932-8.384 1.863-1.397 1.863 3.261 5.59-0.466 2.795-3.261-2.329-6.521 0-10.248 0.932-2.795 0.932 1.863 3.726 2.795 5.589 0.932 1.863 1.863 3.726 1.398 6.056l-5.124-5.59c-6.055 3.261-9.782 9.316-14.906 13.974-2.329 1.863-1.397 5.124-1.397 7.918-3.261 0-6.987-0.932-8.85 0.932-1.397 1.863-0.932 4.658-0.932 7.453-4.658-0.466-5.124-7.453-9.315-6.056-4.192 0.932-8.85 1.397-12.577 3.727 2.795 5.59-4.658 2.329-3.726 3.26-6.987-4.192-13.042-7.453-20.495-4.658-15.837-5.124-35.4-2.795-49.84-0.931 0-2.329 0.466-4.658-0.466-5.124-0.932 2.329-3.726 1.397-3.26 1.397-8.85-6.055-17.7-9.782-27.016-14.905-8.384 0.932-16.303-3.261-18.632-5.59-6.521-6.055-13.974-2.795-20.029-4.192-13.042-3.261-17.7-16.769-19.098-26.084-0.932-4.658-4.658-6.521-6.055-6.056-6.055-19.563-15.371-37.263-22.824-55.429-1.863-4.658-1.397-9.316-1.397-14.44 2.329 0.932 4.658 0.466 4.192-2.794-2.329-15.371-7.918-27.016-13.974-38.195 3.261-15.837 3.726-34.469 11.179-48.443 6.521-12.576 18.632-19.098 27.016-29.811 2.795-3.726 2.795-8.85 5.59-12.11 9.316-9.316 18.632-19.098 28.879-27.482 4.658-3.726 10.247 0 17.234-1.397 2.329-8.384 11.645-15.837 20.495-13.508 3.726 0.932 11.179-8.85 13.508-9.782 3.726-1.397 1.863 3.726 1.863 6.987 8.85-6.987 20.961-10.713 32.14-14.906" fill="#FFFF33" fill-rule="nonzero" stroke="none" stroke-width="1" stroke-linecap="butt" stroke-linejoin="miter" stroke-miterlimit="10" stroke-dasharray="" stroke-dashoffset="0" font-family="none" font-weight="none" font-size="none" text-anchor="none" style="mix-blend-mode: normal" data-fill-palette-color="tertiary"></path></g><g transform="matrix(1,0,0,1,64,133.1924294013627)"><svg viewBox="0 0 192 93.6151411972746" height="93.6151411972746" width="192"><g><svg viewBox="0 0 192 93.6151411972746" height="93.6151411972746" width="192"><g><svg viewBox="0 0 192 93.6151411972746" height="93.6151411972746" width="192"><g transform="matrix(1,0,0,1,0,69.67218445507844)"><svg viewBox="0 0 192 23.942956742196166" height="23.942956742196166" width="192"><g id="textblocktransform"><svg viewBox="0 0 192 23.942956742196166" height="23.942956742196166" width="192" id="textblock"><g><svg viewBox="0 0 192 23.942956742196166" height="23.942956742196166" width="192"><g transform="matrix(1,0,0,1,0,0)"><svg width="192" viewBox="4.25 -38.70000076293945 315.510009765625 39.35000228881836" height="23.942956742196166" data-palette-color="#eaea15"><path d="M4.25-34.4L21.35-34.4 20.8-30.8 8.9-30.8 8.9-19.45 19.25-19.45 19.25-15.85 8.9-15.85 8.9-3.65 21.5-3.65 21.5 0 4.25 0 4.25-34.4ZM32.45 0.65Q30.05 0.65 28.65-0.8 27.25-2.25 27.25-4.85L27.25-4.85 27.25-36.95 31.75-37.45 31.75-5Q31.75-3.05 33.35-3.05L33.35-3.05Q34-3.05 34.8-3.35L34.8-3.35 35.8-0.2Q34.2 0.65 32.45 0.65L32.45 0.65ZM40.7-26.3L45.2-26.3 45.2 0 40.7 0 40.7-26.3ZM42.95-38.7Q44.25-38.7 45.07-37.85 45.9-37 45.9-35.75L45.9-35.75Q45.9-34.5 45.1-33.68 44.3-32.85 42.95-32.85L42.95-32.85Q41.65-32.85 40.82-33.68 40-34.5 40-35.75L40-35.75Q40-37 40.82-37.85 41.65-38.7 42.95-38.7L42.95-38.7ZM64.09-4.05L65.74-1.15Q63.24 0.65 60.19 0.65L60.19 0.65Q56.99 0.65 55.27-1.2 53.54-3.05 53.54-6.4L53.54-6.4 53.54-22.9 49.79-22.9 49.79-26.3 53.54-26.3 53.54-32.35 58.04-32.9 58.04-26.3 63.84-26.3 63.34-22.9 58.04-22.9 58.04-6.45Q58.04-3.05 60.89-3.05L60.89-3.05Q61.74-3.05 62.47-3.3 63.19-3.55 64.09-4.05L64.09-4.05ZM88.09-13.95Q88.09-12.9 87.99-11.6L87.99-11.6 72.69-11.6Q72.89-7 74.54-4.98 76.19-2.95 79.04-2.95L79.04-2.95Q80.84-2.95 82.27-3.5 83.69-4.05 85.24-5.3L85.24-5.3 87.24-2.65Q83.54 0.65 78.84 0.65L78.84 0.65Q73.69 0.65 70.87-2.93 68.04-6.5 68.04-12.95L68.04-12.95Q68.04-19.4 70.74-23.18 73.44-26.95 78.24-26.95L78.24-26.95Q82.99-26.95 85.54-23.58 88.09-20.2 88.09-13.95L88.09-13.95ZM83.74-14.75L83.74-15.3Q83.74-23.55 78.29-23.55L78.29-23.55Q75.79-23.55 74.34-21.48 72.89-19.4 72.69-14.75L72.69-14.75 83.74-14.75ZM116.59 0L111.44 0 104.04-14.65 103.74-14.65 99.19-14.65 99.19 0 94.54 0 94.54-34.4 102.59-34.4Q114.89-34.4 114.89-24.7L114.89-24.7Q114.89-21.3 113.24-18.95 111.59-16.6 108.39-15.5L108.39-15.5 116.59 0ZM102.94-18.2Q106.54-18.2 108.29-19.78 110.04-21.35 110.04-24.7L110.04-24.7Q110.04-27.85 108.26-29.35 106.49-30.85 102.49-30.85L102.49-30.85 99.19-30.85 99.19-18.2 102.94-18.2ZM140.04-13.95Q140.04-12.9 139.94-11.6L139.94-11.6 124.64-11.6Q124.84-7 126.49-4.98 128.14-2.95 130.99-2.95L130.99-2.95Q132.79-2.95 134.21-3.5 135.64-4.05 137.19-5.3L137.19-5.3 139.19-2.65Q135.49 0.65 130.79 0.65L130.79 0.65Q125.64 0.65 122.81-2.93 119.99-6.5 119.99-12.95L119.99-12.95Q119.99-19.4 122.69-23.18 125.39-26.95 130.19-26.95L130.19-26.95Q134.94-26.95 137.49-23.58 140.04-20.2 140.04-13.95L140.04-13.95ZM135.69-14.75L135.69-15.3Q135.69-23.55 130.24-23.55L130.24-23.55Q127.74-23.55 126.29-21.48 124.84-19.4 124.64-14.75L124.64-14.75 135.69-14.75ZM153.08-26.95Q157.63-26.95 161.18-23.95L161.18-23.95 159.28-21.3Q157.68-22.4 156.28-22.95 154.88-23.5 153.33-23.5L153.33-23.5Q151.28-23.5 150.11-22.53 148.93-21.55 148.93-19.85L148.93-19.85Q148.93-18.2 150.06-17.25 151.18-16.3 154.33-15.3L154.33-15.3Q158.28-14.05 160.08-12.25 161.88-10.45 161.88-7.3L161.88-7.3Q161.88-3.6 159.18-1.48 156.48 0.65 152.43 0.65L152.43 0.65Q147.08 0.65 143.38-2.9L143.38-2.9 145.68-5.4Q148.83-2.85 152.33-2.85L152.33-2.85Q154.53-2.85 155.88-3.95 157.23-5.05 157.23-7L157.23-7Q157.23-8.4 156.76-9.25 156.28-10.1 155.06-10.78 153.83-11.45 151.48-12.2L151.48-12.2Q147.73-13.45 146.08-15.2 144.43-16.95 144.43-19.65L144.43-19.65Q144.43-21.75 145.53-23.4 146.63-25.05 148.58-26 150.53-26.95 153.08-26.95L153.08-26.95ZM167.63-26.3L172.13-26.3 172.13 0 167.63 0 167.63-26.3ZM169.88-38.7Q171.18-38.7 172.01-37.85 172.83-37 172.83-35.75L172.83-35.75Q172.83-34.5 172.03-33.68 171.23-32.85 169.88-32.85L169.88-32.85Q168.58-32.85 167.76-33.68 166.93-34.5 166.93-35.75L166.93-35.75Q166.93-37 167.76-37.85 168.58-38.7 169.88-38.7L169.88-38.7ZM194.43-37.45L198.93-36.95 198.93 0 194.93 0 194.63-3.45Q192.08 0.65 187.78 0.65L187.78 0.65Q183.48 0.65 181.1-3 178.73-6.65 178.73-13.05L178.73-13.05Q178.73-17.2 179.9-20.35 181.08-23.5 183.23-25.23 185.38-26.95 188.18-26.95L188.18-26.95Q191.93-26.95 194.43-23.8L194.43-23.8 194.43-37.45ZM188.83-2.9Q190.63-2.9 191.95-3.9 193.28-4.9 194.43-6.85L194.43-6.85 194.43-20.05Q192.18-23.4 189.18-23.4L189.18-23.4Q186.53-23.4 184.98-20.85 183.43-18.3 183.48-13.15L183.48-13.15Q183.48-7.9 184.88-5.4 186.28-2.9 188.83-2.9L188.83-2.9ZM225.48-13.95Q225.48-12.9 225.38-11.6L225.38-11.6 210.08-11.6Q210.28-7 211.93-4.98 213.58-2.95 216.43-2.95L216.43-2.95Q218.23-2.95 219.65-3.5 221.08-4.05 222.63-5.3L222.63-5.3 224.63-2.65Q220.93 0.65 216.23 0.65L216.23 0.65Q211.08 0.65 208.25-2.93 205.43-6.5 205.43-12.95L205.43-12.95Q205.43-19.4 208.13-23.18 210.83-26.95 215.63-26.95L215.63-26.95Q220.38-26.95 222.93-23.58 225.48-20.2 225.48-13.95L225.48-13.95ZM221.13-14.75L221.13-15.3Q221.13-23.55 215.68-23.55L215.68-23.55Q213.18-23.55 211.73-21.48 210.28-19.4 210.08-14.75L210.08-14.75 221.13-14.75ZM243.47-26.95Q246.62-26.95 248.4-24.88 250.17-22.8 250.17-19.15L250.17-19.15 250.17 0 245.67 0 245.67-18.6Q245.67-21.15 244.82-22.28 243.97-23.4 242.22-23.4L242.22-23.4Q238.92-23.4 236.22-18.7L236.22-18.7 236.22 0 231.72 0 231.72-26.3 235.62-26.3 235.97-22.4Q239.02-26.95 243.47-26.95L243.47-26.95ZM267.22-26.95Q269.32-26.95 271.07-26.25 272.82-25.55 274.42-24.1L274.42-24.1 272.42-21.4Q271.22-22.35 270.02-22.83 268.82-23.3 267.42-23.3L267.42-23.3Q264.47-23.3 262.85-20.8 261.22-18.3 261.22-13L261.22-13Q261.22-3.1 267.42-3.1L267.42-3.1Q268.82-3.1 269.97-3.58 271.12-4.05 272.42-5L272.42-5 274.52-2.25Q271.32 0.65 267.27 0.65L267.27 0.65Q262.22 0.65 259.35-2.85 256.47-6.35 256.47-12.95L256.47-12.95Q256.47-17.25 257.8-20.4 259.12-23.55 261.55-25.25 263.97-26.95 267.22-26.95L267.22-26.95ZM297.92-13.95Q297.92-12.9 297.82-11.6L297.82-11.6 282.52-11.6Q282.72-7 284.37-4.98 286.02-2.95 288.87-2.95L288.87-2.95Q290.67-2.95 292.09-3.5 293.52-4.05 295.07-5.3L295.07-5.3 297.07-2.65Q293.37 0.65 288.67 0.65L288.67 0.65Q283.52 0.65 280.69-2.93 277.87-6.5 277.87-12.95L277.87-12.95Q277.87-19.4 280.57-23.18 283.27-26.95 288.07-26.95L288.07-26.95Q292.82-26.95 295.37-23.58 297.92-20.2 297.92-13.95L297.92-13.95ZM293.57-14.75L293.57-15.3Q293.57-23.55 288.12-23.55L288.12-23.55Q285.62-23.55 284.17-21.48 282.72-19.4 282.52-14.75L282.52-14.75 293.57-14.75ZM310.97-26.95Q315.51-26.95 319.06-23.95L319.06-23.95 317.17-21.3Q315.56-22.4 314.17-22.95 312.76-23.5 311.22-23.5L311.22-23.5Q309.17-23.5 307.99-22.53 306.81-21.55 306.81-19.85L306.81-19.85Q306.81-18.2 307.94-17.25 309.06-16.3 312.22-15.3L312.22-15.3Q316.17-14.05 317.97-12.25 319.76-10.45 319.76-7.3L319.76-7.3Q319.76-3.6 317.06-1.48 314.37 0.65 310.31 0.65L310.31 0.65Q304.97 0.65 301.26-2.9L301.26-2.9 303.56-5.4Q306.72-2.85 310.22-2.85L310.22-2.85Q312.42-2.85 313.76-3.95 315.12-5.05 315.12-7L315.12-7Q315.12-8.4 314.64-9.25 314.17-10.1 312.94-10.78 311.72-11.45 309.37-12.2L309.37-12.2Q305.62-13.45 303.97-15.2 302.31-16.95 302.31-19.65L302.31-19.65Q302.31-21.75 303.42-23.4 304.51-25.05 306.47-26 308.42-26.95 310.97-26.95L310.97-26.95Z" opacity="1" transform="matrix(1,0,0,1,0,0)" fill="#EAEA15" class="undefined-text-0" data-fill-palette-color="primary" id="text-0"></path></svg></g></svg></g></svg></g></svg></g><g transform="matrix(1,0,0,1,59.955554357198565,0)"><svg viewBox="0 0 72.08889128560287 66.1783324354302" height="66.1783324354302" width="72.08889128560287"><g><svg xmlns="http://www.w3.org/2000/svg" xmlns:xlink="http://www.w3.org/1999/xlink" version="1.1" x="0" y="0" viewBox="0.48615607619285583 5.700001239776611 127.01384735107422 116.5999984741211" enable-background="new 0 0 128 128" xml:space="preserve" height="66.1783324354302" width="72.08889128560287" class="icon-icon-0" data-fill-palette-color="accent" id="icon-0"><g fill="#FFFFFF" data-fill-palette-color="accent"><g fill="#FFFFFF" data-fill-palette-color="accent"><path fill="#FFFFFF" d="M80.4 107.5H10.9c-1.1 0-2-0.9-2-2v-74c0-1.1 0.9-2 2-2h81.9c1.1 0 2 0.9 2 2v16.7c0 0.5-0.2 1-0.6 1.4l-11.9 12v43.9C82.4 106.6 81.5 107.5 80.4 107.5zM12.9 103.5h65.4V60.7c0-0.5 0.2-1 0.6-1.4l11.9-12V33.5H12.9V103.5z" data-fill-palette-color="accent"></path></g><g fill="#FFFFFF" data-fill-palette-color="accent"><path fill="#FFFFFF" d="M80.4 63.1c-0.4 0-0.8-0.1-1.2-0.4-0.5-0.4-0.8-1-0.8-1.6v-0.4c0-0.5 0.2-1 0.6-1.4L98 40.1c0.8-0.8 2.1-0.8 2.8 0l19.1 19.2c0.4 0.4 0.6 0.9 0.6 1.4v0.4c0 0.6-0.3 1.3-0.8 1.6-0.5 0.4-1.2 0.5-1.8 0.3l-12.4-4.2H93.6L81 63C80.8 63.1 80.6 63.1 80.4 63.1zM99.4 44.3L87.1 56.8l5.5-1.9c0.2-0.1 0.4-0.1 0.6-0.1h12.5c0.2 0 0.4 0 0.6 0.1l5.2 1.8L99.4 44.3z" data-fill-palette-color="accent"></path></g><g fill="#FFFFFF" data-fill-palette-color="accent"><path fill="#FFFFFF" d="M118.5 107.5H80.4c-1.1 0-2-0.9-2-2V61.1c0-0.9 0.5-1.6 1.4-1.9l12.9-4.3c0.2-0.1 0.4-0.1 0.6-0.1h12.5c0.2 0 0.4 0 0.6 0.1l12.7 4.3c0.8 0.3 1.4 1 1.4 1.9v44.3C120.5 106.6 119.6 107.5 118.5 107.5zM82.4 103.5h34.1V62.6l-11-3.7H93.6l-11.2 3.8V103.5z" data-fill-palette-color="accent"></path></g><g fill="#FFFFFF" data-fill-palette-color="accent"><path fill="#FFFFFF" d="M97.6 33.5C97.6 33.5 97.6 33.5 97.6 33.5H2.5c-0.7 0-1.3-0.4-1.7-1-0.4-0.6-0.4-1.3-0.1-1.9l12-23.8c0.3-0.7 1-1.1 1.8-1.1h71.1c0.8 0 1.4 0.4 1.8 1.1l11.9 23.5c0.2 0.3 0.3 0.7 0.3 1.1C99.6 32.6 98.7 33.5 97.6 33.5zM5.7 29.5h88.6l-10-19.8H15.7L5.7 29.5z" data-fill-palette-color="accent"></path></g><g fill="#FFFFFF" data-fill-palette-color="accent"><path fill="#FFFFFF" d="M99.4 97.2c-0.6 0-1-0.4-1-1v-7.1c0-0.6 0.4-1 1-1s1 0.4 1 1v7.1C100.4 96.8 100 97.2 99.4 97.2z" data-fill-palette-color="accent"></path></g><g fill="#FFFFFF" data-fill-palette-color="accent"><path fill="#FFFFFF" d="M86.7 100.8c-0.6 0-1-0.4-1-1v-7.1c0-0.6 0.4-1 1-1s1 0.4 1 1v7.1C87.7 100.3 87.2 100.8 86.7 100.8z" data-fill-palette-color="accent"></path></g><g fill="#FFFFFF" data-fill-palette-color="accent"><path fill="#FFFFFF" d="M42.5 106.5H22.9c-0.6 0-1-0.4-1-1V77.4c0-0.6 0.4-1 1-1h19.5c0.6 0 1 0.4 1 1v28.1C43.5 106 43 106.5 42.5 106.5zM23.9 104.5h17.5V78.4H23.9V104.5z" data-fill-palette-color="accent"></path></g><g fill="#FFFFFF" data-fill-palette-color="accent"><path fill="#FFFFFF" d="M105.8 106.5c-0.6 0-1-0.4-1-1V56.8c0-0.6 0.4-1 1-1s1 0.4 1 1v48.7C106.8 106 106.4 106.5 105.8 106.5z" data-fill-palette-color="accent"></path></g><g fill="#FFFFFF" data-fill-palette-color="accent"><path fill="#FFFFFF" d="M93.3 106.5c-0.6 0-1-0.4-1-1V56.8c0-0.6 0.4-1 1-1s1 0.4 1 1v48.7C94.3 106 93.8 106.5 93.3 106.5z" data-fill-palette-color="accent"></path></g><g fill="#FFFFFF" data-fill-palette-color="accent"><path fill="#FFFFFF" d="M99.4 73.4c-0.6 0-1-0.4-1-1v-7.1c0-0.6 0.4-1 1-1s1 0.4 1 1v7.1C100.4 73 100 73.4 99.4 73.4z" data-fill-palette-color="accent"></path></g><g fill="#FFFFFF" data-fill-palette-color="accent"><path fill="#FFFFFF" d="M112.2 77c-0.6 0-1-0.4-1-1v-7.1c0-0.6 0.4-1 1-1s1 0.4 1 1V76C113.2 76.5 112.7 77 112.2 77z" data-fill-palette-color="accent"></path></g><g fill="#FFFFFF" data-fill-palette-color="accent"><path fill="#FFFFFF" d="M112.2 100.8c-0.6 0-1-0.4-1-1v-7.1c0-0.6 0.4-1 1-1s1 0.4 1 1v7.1C113.2 100.3 112.7 100.8 112.2 100.8z" data-fill-palette-color="accent"></path></g><g fill="#FFFFFF" data-fill-palette-color="accent"><path fill="#FFFFFF" d="M86.7 77c-0.6 0-1-0.4-1-1v-7.1c0-0.6 0.4-1 1-1s1 0.4 1 1V76C87.7 76.5 87.2 77 86.7 77z" data-fill-palette-color="accent"></path></g><g fill="#FFFFFF" data-fill-palette-color="accent"><path fill="#FFFFFF" d="M42.8 64.8H22.9c-0.6 0-1-0.4-1-1V44.5c0-0.6 0.4-1 1-1h19.9c0.6 0 1 0.4 1 1v19.2C43.8 64.3 43.4 64.8 42.8 64.8zM23.9 62.8h17.9V45.5H23.9V62.8z" data-fill-palette-color="accent"></path></g><g fill="#FFFFFF" data-fill-palette-color="accent"><path fill="#FFFFFF" d="M32.7 64.8c-0.6 0-1-0.4-1-1V44.5c0-0.6 0.4-1 1-1s1 0.4 1 1v19.2C33.7 64.3 33.3 64.8 32.7 64.8z" data-fill-palette-color="accent"></path></g><g fill="#FFFFFF" data-fill-palette-color="accent"><path fill="#FFFFFF" d="M75.3 64.8H55.4c-0.6 0-1-0.4-1-1V44.5c0-0.6 0.4-1 1-1h19.9c0.6 0 1 0.4 1 1v19.2C76.3 64.3 75.8 64.8 75.3 64.8zM56.4 62.8h17.9V45.5H56.4V62.8z" data-fill-palette-color="accent"></path></g><g fill="#FFFFFF" data-fill-palette-color="accent"><path fill="#FFFFFF" d="M65.2 64.8c-0.6 0-1-0.4-1-1V44.5c0-0.6 0.4-1 1-1s1 0.4 1 1v19.2C66.2 64.3 65.7 64.8 65.2 64.8z" data-fill-palette-color="accent"></path></g><g fill="#FFFFFF" data-fill-palette-color="accent"><path fill="#FFFFFF" d="M75.3 97.4H55.4c-0.6 0-1-0.4-1-1V77.2c0-0.6 0.4-1 1-1h19.9c0.6 0 1 0.4 1 1v19.2C76.3 97 75.8 97.4 75.3 97.4zM56.4 95.4h17.9V78.2H56.4V95.4z" data-fill-palette-color="accent"></path></g><g fill="#FFFFFF" data-fill-palette-color="accent"><path fill="#FFFFFF" d="M65.2 97.4c-0.6 0-1-0.4-1-1v-19c0-0.6 0.4-1 1-1s1 0.4 1 1v19C66.2 97 65.7 97.4 65.2 97.4z" data-fill-palette-color="accent"></path></g><g fill="#FFFFFF" data-fill-palette-color="accent"><path fill="#FFFFFF" d="M125.5 122.3H3.9c-1.1 0-2-0.9-2-2v-14.8c0-1.1 0.9-2 2-2h121.6c1.1 0 2 0.9 2 2v14.8C127.5 121.4 126.6 122.3 125.5 122.3zM5.9 118.3h117.6v-10.8H5.9V118.3z" data-fill-palette-color="accent"></path></g><g fill="#FFFFFF" data-fill-palette-color="accent"><path fill="#FFFFFF" d="M38.1 94.3c-0.6 0-1-0.4-1-1v-3.6c0-0.6 0.4-1 1-1s1 0.4 1 1v3.6C39.1 93.8 38.7 94.3 38.1 94.3z" data-fill-palette-color="accent"></path></g></g></svg></g></svg></g><g></g></svg></g></svg></g></svg></g></svg></g><defs></defs></svg>